<svg id="icons" xmlns="http://www.w3.org/2000/svg" viewBox="0 0 64 64"><path d="M32,61.34082a.99928.99928,0,0,1-.707-.293L5.61328,35.36621A19.15889,19.15889,0,0,1,32,7.59863,19.15882,19.15882,0,0,1,58.38672,35.36621L32.707,61.04785A.99927.99927,0,0,1,32,61.34082ZM19.15918,4.66016a17.1577,17.1577,0,0,0-12.13184,29.292L32,58.92676,56.97266,33.95215A17.15873,17.15873,0,0,0,32.707,9.68555a.99964.99964,0,0,1-1.41406,0A17.04574,17.04574,0,0,0,19.15918,4.66016Z"/><path d="M24.29883,46.50488a1.00042,1.00042,0,0,1-.69922-.28515,11.99951,11.99951,0,1,1,16.78223,0,1.00017,1.00017,0,0,1-1.53907-.1709,8.15434,8.15434,0,0,0-13.70507,0,.99969.99969,0,0,1-.72852.45019A1.05723,1.05723,0,0,1,24.29883,46.50488Zm7.6914-18.85742a10.01177,10.01177,0,0,0-10,10,9.90809,9.90809,0,0,0,2.22754,6.28809,10.15105,10.15105,0,0,1,15.54395,0,9.90745,9.90745,0,0,0,2.22851-6.28809A10.01177,10.01177,0,0,0,31.99023,27.64746Z"/><path d="M26.5,23.66016a5,5,0,1,1,5-5A5.00589,5.00589,0,0,1,26.5,23.66016Zm0-8a3,3,0,1,0,3,3A3.00328,3.00328,0,0,0,26.5,15.66016Z"/><path d="M37.5,23.66016a5,5,0,1,1,5-5A5.00589,5.00589,0,0,1,37.5,23.66016Zm0-8a3,3,0,1,0,3,3A3.00328,3.00328,0,0,0,37.5,15.66016Z"/><path d="M45.5,30.66016a5,5,0,1,1,5-5A5.00589,5.00589,0,0,1,45.5,30.66016Zm0-8a3,3,0,1,0,3,3A3.00328,3.00328,0,0,0,45.5,22.66016Z"/><path d="M18.5,30.66016a5,5,0,1,1,5-5A5.00589,5.00589,0,0,1,18.5,30.66016Zm0-8a3,3,0,1,0,3,3A3.00328,3.00328,0,0,0,18.5,22.66016Z"/></svg>