<svg id="icons" xmlns="http://www.w3.org/2000/svg" viewBox="0 0 64 64"><path d="M63,62H1a1,1,0,0,1,0-2H63a1,1,0,0,1,0,2Z"/><path d="M42.999,62H21.001a.99942.99942,0,0,1-1-1V21a.99973.99973,0,0,1,1-1H42.999a.99973.99973,0,0,1,1,1V61A.99942.99942,0,0,1,42.999,62ZM22.001,60H41.999V22H22.001Z"/><path d="M60.999,62H43.001a.99942.99942,0,0,1-1-1V38a.99942.99942,0,0,1,1-1H60.999a.99942.99942,0,0,1,1,1V61A.99942.99942,0,0,1,60.999,62ZM44.001,60H59.999V39H44.001Z"/><path d="M21,62H3.002a.99943.99943,0,0,1-1-1V38a.99943.99943,0,0,1,1-1H21a.99943.99943,0,0,1,1,1V61A.99943.99943,0,0,1,21,62ZM4.002,60H20V39H4.002Z"/><path d="M17.001,48H7a.99943.99943,0,0,1-1-1V42a.99943.99943,0,0,1,1-1H17.001a.99943.99943,0,0,1,1,1v5A.99943.99943,0,0,1,17.001,48ZM8,46h8.001V43H8Z"/><path d="M12.001,48a.99942.99942,0,0,1-1-1V42a1,1,0,0,1,2,0v5A.99943.99943,0,0,1,12.001,48Z"/><path d="M17.001,57.002H7a.99942.99942,0,0,1-1-1v-5a.99943.99943,0,0,1,1-1H17.001a.99943.99943,0,0,1,1,1v5A.99942.99942,0,0,1,17.001,57.002ZM8,55.002h8.001v-3H8Z"/><path d="M12.001,57.002a.99942.99942,0,0,1-1-1v-5a1,1,0,0,1,2,0v5A.99942.99942,0,0,1,12.001,57.002Z"/><path d="M57,48H46.999a.99943.99943,0,0,1-1-1V42a.99943.99943,0,0,1,1-1H57a.99943.99943,0,0,1,1,1v5A.99943.99943,0,0,1,57,48Zm-9.001-2H56V43H47.999Z"/><path d="M52,48a.99943.99943,0,0,1-1-1V42a1,1,0,0,1,2,0v5A.99943.99943,0,0,1,52,48Z"/><path d="M37.001,39.002H27a.99942.99942,0,0,1-1-1v-5a.99974.99974,0,0,1,1-1H37.001a.99974.99974,0,0,1,1,1v5A.99942.99942,0,0,1,37.001,39.002Zm-9.001-2h8.001v-3H28Z"/><path d="M32.001,39.002a.99942.99942,0,0,1-1-1v-5a1,1,0,1,1,2,0v5A.99942.99942,0,0,1,32.001,39.002Z"/><path d="M37.001,48.002H27a.99942.99942,0,0,1-1-1v-5a.99943.99943,0,0,1,1-1H37.001a.99943.99943,0,0,1,1,1v5A.99942.99942,0,0,1,37.001,48.002Zm-9.001-2h8.001v-3H28Z"/><path d="M32.001,48.002a.99942.99942,0,0,1-1-1v-5a1,1,0,1,1,2,0v5A.99942.99942,0,0,1,32.001,48.002Z"/><path d="M57,57.002H46.999a.99942.99942,0,0,1-1-1v-5a.99943.99943,0,0,1,1-1H57a.99943.99943,0,0,1,1,1v5A.99942.99942,0,0,1,57,57.002Zm-9.001-2H56v-3H47.999Z"/><path d="M52,57.002a.99942.99942,0,0,1-1-1v-5a1,1,0,1,1,2,0v5A.99942.99942,0,0,1,52,57.002Z"/><path d="M36,62H28a.99943.99943,0,0,1-1-1V51a.99943.99943,0,0,1,1-1h8a.99943.99943,0,0,1,1,1V61A.99943.99943,0,0,1,36,62Zm-7-2h6V52H29Z"/><path d="M44,22H20a1,1,0,0,1,0-2H44a1,1,0,0,1,0,2Z"/><path d="M62,39H60.999a1,1,0,0,1,0-2H62a1,1,0,0,1,0,2Z"/><path d="M3.002,39H2a1,1,0,0,1,0-2H3.002a1,1,0,1,1,0,2Z"/><path d="M32,22a.99974.99974,0,0,1-1-1V18a1,1,0,0,1,2,0v3A.99974.99974,0,0,1,32,22Z"/><path d="M31.999,19a8.5,8.5,0,1,1,8.5-8.5A8.50982,8.50982,0,0,1,31.999,19Zm0-15a6.5,6.5,0,1,0,6.5,6.5A6.50753,6.50753,0,0,0,31.999,4Z"/><path d="M32,30a.99974.99974,0,0,1-1-1V25a1,1,0,0,1,2,0v4A.99974.99974,0,0,1,32,30Z"/><path d="M34,28H30a1,1,0,0,1,0-2h4a1,1,0,0,1,0,2Z"/><path d="M29.01953,9a1,1,0,0,1-.00976-2h.00976a1,1,0,1,1,0,2Z"/><path d="M32.01953,8a1,1,0,0,1-.00976-2h.00976a1,1,0,0,1,0,2Z"/><path d="M35.01953,9a1,1,0,0,1-.00976-2h.00976a1,1,0,0,1,0,2Z"/><path d="M32,15a3,3,0,1,1,3-3A3.00328,3.00328,0,0,1,32,15Zm0-4a1,1,0,1,0,1,1A1.001,1.001,0,0,0,32,11Z"/></svg>