<svg id="icons" xmlns="http://www.w3.org/2000/svg" viewBox="0 0 64 64"><path d="M25,46.98828a21.98926,21.98926,0,1,1,15.55664-6.43359A21.932,21.932,0,0,1,25,46.98828ZM25,5.00879a19.99024,19.99024,0,1,0,14.14258,5.84863A19.93914,19.93914,0,0,0,25,5.00879Z"/><path d="M25,49.98633a24.98682,24.98682,0,1,1,17.67773-7.30957A24.9224,24.9224,0,0,1,25,49.98633ZM25,2.01074A22.98878,22.98878,0,1,0,41.26367,8.73633,22.92809,22.92809,0,0,0,25,2.01074Z"/><path d="M46.00586,49.834a.99675.99675,0,0,1-.707-.293L39.791,44.03223a.99989.99989,0,0,1,1.41406-1.41407L46.71289,48.127a1,1,0,0,1-.707,1.707Z"/><path d="M48.834,47.00586a.9968.9968,0,0,1-.707-.293l-5.51367-5.51465a.99989.99989,0,0,1,1.41406-1.41406L49.541,45.29883a1,1,0,0,1-.707,1.707Z"/><path d="M44.5918,51.24805a1,1,0,0,1-.707-1.707L49.541,43.88281a.99989.99989,0,1,1,1.41406,1.41407l-5.65625,5.6582A.99676.99676,0,0,1,44.5918,51.24805Z"/><path d="M56.17188,62.82813a.9968.9968,0,0,1-.707-.293L43.88477,50.95508A.99989.99989,0,0,1,45.29883,49.541L56.87891,61.12109a1,1,0,0,1-.707,1.707Z"/><path d="M61.82813,57.17285a.99676.99676,0,0,1-.707-.293L49.541,45.29688a.99989.99989,0,0,1,1.41406-1.41407l11.58008,11.583a1,1,0,0,1-.707,1.707Z"/><path d="M59.001,64a4.96848,4.96848,0,0,1-3.53614-1.46484.9999.9999,0,0,1,1.41407-1.41407,3.06937,3.06937,0,0,0,4.24121,0,2.99655,2.99655,0,0,0,.002-4.24023.9999.9999,0,0,1,1.41211-1.416A4.99951,4.99951,0,0,1,59.001,64Z"/><path d="M25,41A11,11,0,1,1,36,30,11.01245,11.01245,0,0,1,25,41Zm0-20a9,9,0,1,0,9,9A9.01016,9.01016,0,0,0,25,21Z"/><path d="M20,18a4,4,0,1,1,4-4A4.00427,4.00427,0,0,1,20,18Zm0-6a2,2,0,1,0,2,2A2.00229,2.00229,0,0,0,20,12Z"/><path d="M30,18a4,4,0,1,1,4-4A4.00427,4.00427,0,0,1,30,18Zm0-6a2,2,0,1,0,2,2A2.00229,2.00229,0,0,0,30,12Z"/><path d="M38,24a4,4,0,1,1,4-4A4.00427,4.00427,0,0,1,38,24Zm0-6a2,2,0,1,0,2,2A2.00229,2.00229,0,0,0,38,18Z"/><path d="M12,24a4,4,0,1,1,4-4A4.00427,4.00427,0,0,1,12,24Zm0-6a2,2,0,1,0,2,2A2.00229,2.00229,0,0,0,12,18Z"/><path d="M25,35a.99943.99943,0,0,1-1-1V26a1,1,0,0,1,2,0v8A.99943.99943,0,0,1,25,35Z"/><path d="M29,31H21a1,1,0,0,1,0-2h8a1,1,0,0,1,0,2Z"/></svg>